<?xml version="1.0" standalone="no"?><!DOCTYPE svg PUBLIC "-//W3C//DTD SVG 1.1//EN" "http://www.w3.org/Graphics/SVG/1.1/DTD/svg11.dtd"><svg t="1713239801637" class="icon" viewBox="0 0 1024 1024" version="1.1" xmlns="http://www.w3.org/2000/svg" p-id="5573" xmlns:xlink="http://www.w3.org/1999/xlink" width="200" height="200"><path d="M444.9 637.9c-130.8-20.3-232-82.4-285.8-175.6-53.8-93.3-57-211.9-9.2-335.3 130.8 20.3 231.9 82.4 285.8 175.6 53.8 93.3 56.9 211.9 9.2 335.3z" fill="#9AD665" p-id="5574"></path><path d="M161.6 147.3C279.8 168.9 371 226.6 420 311.6c49.1 85 53.5 192.8 13.1 306-118.2-21.6-209.3-79.4-258.4-164.3-49.1-85-53.5-192.8-13.1-306m-23.2-40.2c-53.4 128.7-55.9 258.7 5 364.2 61 105.6 174.8 168.4 312.9 186.5 53.4-128.7 55.9-258.7-5-364.2-61-105.6-174.8-168.4-312.9-186.5z" fill="#454A57" p-id="5575"></path><path d="M517.7 642.7c-47.8-123.4-44.7-242.1 9.2-335.3 53.8-93.3 155-155.3 285.8-175.6 47.8 123.4 44.7 242.1-9.2 335.3s-155 155.3-285.8 175.6z" fill="#9AD665" p-id="5576"></path><path d="M800.9 152.1c40.4 113.2 35.9 221-13.1 306-49.1 85-140.2 142.7-258.4 164.3-40.4-113.2-35.9-221 13.1-306 49.1-85 140.2-142.7 258.4-164.3m23.2-40.2C686 130 572.2 192.8 511.2 298.4c-61 105.6-58.5 235.5-5 364.2 138.2-18.1 252-80.9 312.9-186.5 61-105.6 58.5-235.5 5-364.2z" fill="#454A57" p-id="5577"></path><path d="M520.2 745.3c-107.6 0-195.1-87.5-195.1-195.1S412.6 355 520.2 355s195.1 87.5 195.1 195.1-87.6 195.2-195.1 195.2z" fill="#5998D8" p-id="5578"></path><path d="M520.2 373.1c97.6 0 177.1 79.4 177.1 177.1s-79.4 177.1-177.1 177.1-177.1-79.4-177.1-177.1 79.4-177.1 177.1-177.1m0-36.1C402.4 337 307 432.4 307 550.2s95.4 213.2 213.2 213.2S733.4 668 733.4 550.2 637.9 337 520.2 337z" fill="#454A57" p-id="5579"></path><path d="M513.7 499.2c-2 0-4-0.6-5.8-1.7l-13.1-8.2-13.1 8.2c-1.8 1.1-3.8 1.7-5.8 1.7-2.1 0-4.1-0.6-5.9-1.8-3.5-2.3-5.4-6.5-4.8-10.6l2.9-20.1-12-14c-2.5-3-3.3-7.1-2-10.7 1.3-3.7 4.5-6.4 8.4-7l15.2-2.6 7.1-17.2c1.7-4 5.6-6.7 10-6.7s8.3 2.6 10 6.7l7.1 17.2 15.2 2.6c3.8 0.7 7 3.3 8.4 7 1.3 3.7 0.6 7.8-2 10.7l-12 14 2.9 20.1c0.6 4.2-1.3 8.3-4.8 10.6-1.8 1.3-3.8 1.8-5.9 1.8z" fill="#454A57" p-id="5580"></path><path d="M494.9 419.3l9.4 22.8 21.1 3.7-15.3 17.7 3.6 25-18.9-11.8-18.8 11.7 3.6-25-15.3-17.7 21.1-3.7 9.5-22.7m0-21.7c-8.8 0-16.7 5.3-20 13.4l-4.9 11.7-9.3 1.6c-7.7 1.3-14.1 6.7-16.7 14-2.6 7.4-1.1 15.5 4 21.5l8.8 10.2-2.2 15.3c-1.2 8.4 2.6 16.7 9.6 21.3 3.6 2.3 7.7 3.5 11.8 3.5 4 0 8-1.1 11.5-3.3l7.4-4.6 7.4 4.6c3.5 2.2 7.5 3.3 11.5 3.3 4.1 0 8.2-1.2 11.8-3.5 7.1-4.6 10.8-12.9 9.6-21.3L533 470l8.8-10.2c5.1-5.9 6.6-14.1 4-21.5-2.6-7.4-9-12.7-16.7-14l-9.3-1.6-4.9-11.7c-3.4-8.1-11.3-13.4-20-13.4z" fill="#454A57" p-id="5581"></path><path d="M337.5 898.9c-107.6 0-195.1-87.5-195.1-195.1s87.5-195.1 195.1-195.1 195.1 87.5 195.1 195.1-87.5 195.1-195.1 195.1z" fill="#5998D8" p-id="5582"></path><path d="M337.5 526.7c97.6 0 177.1 79.4 177.1 177.1s-79.4 177.1-177.1 177.1-177.1-79.4-177.1-177.1 79.5-177.1 177.1-177.1m0-36.2c-117.7 0-213.2 95.4-213.2 213.2s95.4 213.2 213.2 213.2 213.2-95.4 213.2-213.2-95.5-213.2-213.2-213.2z" fill="#454A57" p-id="5583"></path><path d="M777.8 891.6c-62.8 0-128.2-43.1-166.8-109.8-53.8-93.2-39.2-202.6 32.4-244 18.2-10.5 38.7-15.9 60.8-15.9 62.8 0 128.2 43.1 166.8 109.8 53.8 93.2 39.2 202.6-32.4 244-18.3 10.6-38.7 15.9-60.8 15.9z" fill="#5998D8" p-id="5584"></path><path d="M704.3 540c56.4 0 115.7 39.6 151.1 100.8 24.4 42.3 34.5 89.2 28.2 131.9-5.8 39.6-25 70.6-54.1 87.4-15.5 8.9-32.9 13.5-51.8 13.5-56.5 0-115.8-39.6-151.1-100.8-24.4-42.3-34.5-89.2-28.2-131.9 5.8-39.6 25-70.6 54.1-87.4 15.5-9 32.9-13.5 51.8-13.5m0-36.2c-24.5 0-48.3 5.9-69.8 18.3-80.4 46.4-97.9 166.7-39.1 268.7 43.1 74.7 115.3 118.8 182.4 118.8 24.5 0 48.3-5.9 69.8-18.3 80.4-46.4 97.9-166.7 39.1-268.7-43.2-74.6-115.3-118.8-182.4-118.8z" fill="#454A57" p-id="5585"></path><path d="M871.1 682.1c-4.2-0.2-7.9-2.9-9.5-6.8l-7.6-18.9-17.4-6.1c-3.7-1.3-6.4-4.5-7.1-8.3-0.7-3.8 0.7-7.8 3.7-10.3l11.9-9.9-2.4-18.5c-0.6-4.3 1.5-8.6 5.3-10.8 1.7-1 3.6-1.5 5.4-1.5 2.3 0 4.7 0.8 6.6 2.2l14.8 11.4 14.5-5.3c1.2-0.4 2.5-0.7 3.7-0.7 2.5 0 5 0.9 7 2.6 3 2.5 4.4 6.5 3.6 10.3l-3.4 18.1 12.6 16c2.6 3.3 3.1 7.8 1.1 11.6-1.9 3.6-5.6 5.9-9.7 5.9-0.1 0-15.9-0.6-15.9-0.6l-7.3 13.7c-1.9 3.6-5.6 5.8-9.6 5.8 0.1 0.1-0.1 0.1-0.3 0.1z" fill="#454A57" p-id="5586"></path><path d="M853.4 601.9l19.5 15 20.1-7.4-4.4 23 15.6 19.9-22.2-0.8-10.4 19.7-9.4-23.5-22.1-7.7 16.4-13.7-3.1-24.5m0-21.6c-3.7 0-7.5 1-10.8 2.9-7.6 4.4-11.8 12.9-10.7 21.6l1.7 12.6-7.3 6.1c-6 5-8.8 12.8-7.4 20.5 1.4 7.7 6.8 14 14.2 16.6l12.8 4.5 5.7 14.3c3.1 7.8 10.5 13.1 19 13.6h1.2c8 0 15.4-4.4 19.1-11.5l4.1-7.7 8.7 0.3h0.8c8.1 0 15.6-4.6 19.3-11.9 3.8-7.5 2.9-16.6-2.3-23.2l-9.5-12.1 2.5-13.3c1.5-7.7-1.3-15.5-7.3-20.6-4-3.4-9-5.1-14-5.1-2.5 0-5 0.4-7.5 1.3l-8.9 3.3-10.1-7.7c-4-3-8.6-4.5-13.3-4.5z" fill="#454A57" p-id="5587"></path><path d="M318.6 666.2c-2.1 0-4.1-0.6-5.9-1.8-3.5-2.3-5.4-6.5-4.8-10.6l2.9-20.1-12-14c-2.5-3-3.3-7.1-2-10.7 1.3-3.7 4.5-6.4 8.4-7l15.2-2.6 7.1-17.2c1.7-4 5.6-6.7 10-6.7s8.3 2.6 10 6.7l7.1 17.2 15.2 2.6c3.8 0.7 7 3.3 8.4 7 1.3 3.7 0.6 7.8-2 10.7l-12 14 2.9 20.1c0.6 4.2-1.3 8.3-4.8 10.6-1.8 1.2-3.9 1.8-5.9 1.8-2 0-4-0.6-5.8-1.7l-13.1-8.2-13.1 8.2c-1.8 1.1-3.8 1.7-5.8 1.7z" fill="#454A57" p-id="5588"></path><path d="M337.5 586.2l9.4 22.8 21.1 3.6-15.3 17.7 3.6 25-18.9-11.8-18.9 11.8 3.6-25-15.1-17.7 21.1-3.6 9.4-22.8m0-21.7c-8.8 0-16.7 5.3-20 13.4l-4.9 11.7-9.3 1.6c-7.7 1.3-14.1 6.7-16.7 14-2.6 7.4-1.1 15.5 4 21.5l8.8 10.2-2.2 15.3c-1.2 8.4 2.6 16.7 9.6 21.3 3.6 2.3 7.7 3.5 11.8 3.5 4 0 8-1.1 11.5-3.3l7.4-4.6 7.4 4.6c3.5 2.2 7.5 3.3 11.5 3.3 4.1 0 8.2-1.2 11.8-3.5 7.1-4.6 10.8-12.9 9.6-21.3l-2.2-15.3 8.8-10.2c5.1-5.9 6.6-14.1 4-21.5-2.6-7.3-9-12.7-16.7-14l-9.3-1.6-4.9-11.7c-3.3-8.1-11.2-13.4-20-13.4z" fill="#454A57" p-id="5589"></path></svg>